<mxfile host="app.diagrams.net" modified="2024-01-27T03:38:46.066Z" agent="Mozilla/5.0 (Windows NT 10.0; Win64; x64) AppleWebKit/537.36 (KHTML, like Gecko) Chrome/120.0.0.0 Safari/537.36" etag="MulGBq_URMJYGbQDpsSD" version="23.0.1" type="github">
  <diagram name="Page-1" id="YYsGQm798vSZ3RUjZ78o">
    <mxGraphModel dx="731" dy="460" grid="1" gridSize="10" guides="1" tooltips="1" connect="1" arrows="1" fold="1" page="1" pageScale="1" pageWidth="850" pageHeight="1100" math="0" shadow="0">
      <root>
        <object label="" Postman="" id="0">
          <mxCell />
        </object>
        <mxCell id="1" parent="0" />
        <mxCell id="e2pOjzJbHqZCLQNmfEJ8-7" style="edgeStyle=orthogonalEdgeStyle;rounded=0;orthogonalLoop=1;jettySize=auto;html=1;entryX=0;entryY=0.5;entryDx=0;entryDy=0;" parent="1" source="e2pOjzJbHqZCLQNmfEJ8-2" target="e2pOjzJbHqZCLQNmfEJ8-3" edge="1">
          <mxGeometry relative="1" as="geometry" />
        </mxCell>
        <mxCell id="e2pOjzJbHqZCLQNmfEJ8-2" value="Org" style="rounded=0;whiteSpace=wrap;html=1;fillColor=#d5e8d4;strokeColor=#82b366;" parent="1" vertex="1">
          <mxGeometry x="120" y="40" width="120" height="60" as="geometry" />
        </mxCell>
        <mxCell id="e2pOjzJbHqZCLQNmfEJ8-8" style="edgeStyle=orthogonalEdgeStyle;rounded=0;orthogonalLoop=1;jettySize=auto;html=1;entryX=0;entryY=0.5;entryDx=0;entryDy=0;" parent="1" source="e2pOjzJbHqZCLQNmfEJ8-3" target="e2pOjzJbHqZCLQNmfEJ8-4" edge="1">
          <mxGeometry relative="1" as="geometry" />
        </mxCell>
        <mxCell id="e2pOjzJbHqZCLQNmfEJ8-3" value="Cluster" style="rounded=0;whiteSpace=wrap;html=1;fillColor=#f8cecc;strokeColor=#b85450;" parent="1" vertex="1">
          <mxGeometry x="200" y="130" width="120" height="60" as="geometry" />
        </mxCell>
        <mxCell id="e2pOjzJbHqZCLQNmfEJ8-9" style="edgeStyle=orthogonalEdgeStyle;rounded=0;orthogonalLoop=1;jettySize=auto;html=1;entryX=0;entryY=0.5;entryDx=0;entryDy=0;" parent="1" edge="1">
          <mxGeometry relative="1" as="geometry">
            <mxPoint x="370" y="265" as="sourcePoint" />
            <mxPoint x="520" y="330" as="targetPoint" />
            <Array as="points">
              <mxPoint x="370" y="320" />
              <mxPoint x="400" y="320" />
              <mxPoint x="400" y="330" />
            </Array>
          </mxGeometry>
        </mxCell>
        <mxCell id="e2pOjzJbHqZCLQNmfEJ8-10" style="edgeStyle=orthogonalEdgeStyle;rounded=0;orthogonalLoop=1;jettySize=auto;html=1;entryX=0;entryY=0.5;entryDx=0;entryDy=0;" parent="1" source="e2pOjzJbHqZCLQNmfEJ8-4" target="e2pOjzJbHqZCLQNmfEJ8-5" edge="1">
          <mxGeometry relative="1" as="geometry">
            <Array as="points">
              <mxPoint x="370" y="300" />
            </Array>
          </mxGeometry>
        </mxCell>
        <mxCell id="e2pOjzJbHqZCLQNmfEJ8-11" style="edgeStyle=orthogonalEdgeStyle;rounded=0;orthogonalLoop=1;jettySize=auto;html=1;exitX=0.5;exitY=0;exitDx=0;exitDy=0;" parent="1" source="e2pOjzJbHqZCLQNmfEJ8-4" edge="1">
          <mxGeometry relative="1" as="geometry">
            <mxPoint x="350" y="230" as="targetPoint" />
          </mxGeometry>
        </mxCell>
        <mxCell id="e2pOjzJbHqZCLQNmfEJ8-4" value="Collection&amp;nbsp;" style="rounded=0;whiteSpace=wrap;html=1;fillColor=#fff2cc;strokeColor=#d6b656;" parent="1" vertex="1">
          <mxGeometry x="300" y="220" width="120" height="60" as="geometry" />
        </mxCell>
        <mxCell id="e2pOjzJbHqZCLQNmfEJ8-5" value="Schema 1" style="rounded=0;whiteSpace=wrap;html=1;fillColor=#dae8fc;strokeColor=#6c8ebf;" parent="1" vertex="1">
          <mxGeometry x="524" y="280" width="110" height="30" as="geometry" />
        </mxCell>
        <mxCell id="e2pOjzJbHqZCLQNmfEJ8-6" value="Schema 2" style="rounded=0;whiteSpace=wrap;html=1;fillColor=#dae8fc;strokeColor=#6c8ebf;" parent="1" vertex="1">
          <mxGeometry x="520" y="330" width="110" height="30" as="geometry" />
        </mxCell>
        <mxCell id="e2pOjzJbHqZCLQNmfEJ8-14" style="edgeStyle=orthogonalEdgeStyle;rounded=0;orthogonalLoop=1;jettySize=auto;html=1;entryX=0;entryY=0.5;entryDx=0;entryDy=0;" parent="1" source="e2pOjzJbHqZCLQNmfEJ8-12" target="e2pOjzJbHqZCLQNmfEJ8-13" edge="1">
          <mxGeometry relative="1" as="geometry" />
        </mxCell>
        <mxCell id="e2pOjzJbHqZCLQNmfEJ8-15" value="API" style="edgeLabel;html=1;align=center;verticalAlign=middle;resizable=0;points=[];" parent="e2pOjzJbHqZCLQNmfEJ8-14" vertex="1" connectable="0">
          <mxGeometry x="-0.0625" y="3" relative="1" as="geometry">
            <mxPoint as="offset" />
          </mxGeometry>
        </mxCell>
        <mxCell id="e2pOjzJbHqZCLQNmfEJ8-16" value="CRUD_API&lt;br style=&quot;font-size: 14px;&quot;&gt;" style="edgeLabel;html=1;align=center;verticalAlign=middle;resizable=0;points=[];spacing=5;fontSize=14;" parent="e2pOjzJbHqZCLQNmfEJ8-14" vertex="1" connectable="0">
          <mxGeometry x="-0.01" relative="1" as="geometry">
            <mxPoint as="offset" />
          </mxGeometry>
        </mxCell>
        <mxCell id="e2pOjzJbHqZCLQNmfEJ8-12" value="API&lt;br&gt;NodeJS,&amp;nbsp;&lt;br&gt;Express,&lt;br&gt;mongoose&amp;nbsp;" style="rounded=0;whiteSpace=wrap;html=1;fillColor=#fff2cc;strokeColor=#d6b656;" parent="1" vertex="1">
          <mxGeometry x="110" y="718" width="120" height="60" as="geometry" />
        </mxCell>
        <mxCell id="e2pOjzJbHqZCLQNmfEJ8-13" value="MongoDB" style="rounded=0;whiteSpace=wrap;html=1;fillColor=#dae8fc;strokeColor=#6c8ebf;" parent="1" vertex="1">
          <mxGeometry x="390" y="720" width="120" height="60" as="geometry" />
        </mxCell>
        <mxCell id="e2pOjzJbHqZCLQNmfEJ8-18" value="" style="edgeStyle=orthogonalEdgeStyle;rounded=0;orthogonalLoop=1;jettySize=auto;html=1;" parent="1" target="e2pOjzJbHqZCLQNmfEJ8-12" edge="1">
          <mxGeometry relative="1" as="geometry">
            <mxPoint x="125" y="630" as="sourcePoint" />
          </mxGeometry>
        </mxCell>
        <mxCell id="e2pOjzJbHqZCLQNmfEJ8-20" value="test" style="edgeLabel;html=1;align=center;verticalAlign=middle;resizable=0;points=[];fontSize=14;" parent="e2pOjzJbHqZCLQNmfEJ8-18" vertex="1" connectable="0">
          <mxGeometry x="-0.2119" y="1" relative="1" as="geometry">
            <mxPoint y="1" as="offset" />
          </mxGeometry>
        </mxCell>
        <mxCell id="e2pOjzJbHqZCLQNmfEJ8-19" value="Postman" style="ellipse;whiteSpace=wrap;html=1;fillColor=#d5e8d4;strokeColor=#82b366;" parent="1" vertex="1">
          <mxGeometry x="70" y="570" width="120" height="60" as="geometry" />
        </mxCell>
      </root>
    </mxGraphModel>
  </diagram>
</mxfile>
